<?xml version="1.0" standalone="no"?>
<!DOCTYPE svg PUBLIC "-//W3C//DTD SVG 20010904//EN"
 "http://www.w3.org/TR/2001/REC-SVG-20010904/DTD/svg10.dtd">
<svg version="1.0" xmlns="http://www.w3.org/2000/svg"
 width="700.000000pt" height="700.000000pt" viewBox="0 0 700.000000 700.000000"
 preserveAspectRatio="xMidYMid meet">
<metadata>
Created by potrace 1.14, written by Peter Selinger 2001-2017
</metadata>
<g transform="translate(0.000000,700.000000) scale(0.100000,-0.100000)"
fill="#000000" stroke="none">
<path d="M1953 6981 c-189 -64 -280 -277 -198 -460 44 -98 156 -183 255 -193
l35 -4 188 -375 c104 -205 282 -559 395 -785 l207 -412 -32 -43 c-63 -86 -80
-233 -37 -321 17 -37 17 -38 -3 -60 -11 -13 -107 -124 -214 -248 -106 -124
-266 -308 -354 -409 -88 -102 -191 -221 -230 -266 -38 -44 -106 -122 -150
-173 -64 -75 -84 -92 -100 -87 -42 13 -154 17 -184 7 -28 -10 -32 -8 -57 21
-14 18 -43 50 -63 72 -20 22 -67 76 -106 120 -38 44 -90 103 -115 130 -25 28
-72 82 -106 120 -97 111 -231 264 -304 345 -37 41 -80 90 -97 109 l-30 34 18
37 c82 170 9 378 -161 459 -47 22 -68 26 -145 26 -75 0 -98 -4 -140 -25 -212
-104 -261 -380 -97 -548 70 -72 194 -112 290 -94 l52 9 62 -71 c34 -39 67 -75
72 -81 6 -5 56 -62 111 -125 55 -63 109 -125 120 -136 11 -12 45 -50 75 -84
30 -35 60 -68 65 -74 6 -6 57 -65 115 -131 58 -66 121 -137 140 -159 100 -111
93 -93 63 -166 -22 -56 -25 -74 -20 -137 5 -70 37 -154 73 -194 8 -8 14 -20
14 -25 0 -6 -214 -437 -475 -959 l-474 -948 -66 -3 c-182 -9 -330 -184 -311
-367 17 -164 145 -290 309 -304 193 -16 357 133 360 327 1 82 -14 135 -57 197
l-33 48 471 942 c259 518 474 943 479 943 4 0 7 -8 7 -17 0 -10 31 -178 70
-373 38 -195 72 -371 75 -390 3 -19 8 -42 10 -50 2 -8 6 -26 9 -40 8 -47 19
-105 23 -125 2 -11 7 -33 9 -50 3 -16 14 -72 24 -123 l19 -92 -47 -48 c-206
-206 -85 -548 205 -578 149 -16 297 81 349 229 18 51 21 148 6 202 -33 116
-149 220 -270 241 -8 1 -16 4 -18 6 -3 3 -86 416 -118 588 -8 45 -74 381 -105
535 -16 82 -29 151 -27 152 1 1 24 -16 52 -38 27 -23 69 -58 93 -78 25 -20 75
-61 111 -91 37 -30 86 -71 110 -90 36 -29 342 -281 447 -369 17 -14 162 -133
321 -265 l289 -238 -9 -42 c-14 -58 -4 -154 20 -209 95 -215 395 -270 553
-100 88 94 113 190 87 334 -3 15 15 32 153 141 19 15 258 207 532 426 l498
399 62 -25 c52 -21 72 -24 136 -19 132 8 231 72 287 185 25 50 29 68 29 147 0
78 -4 97 -28 147 -16 33 -49 76 -78 102 -48 43 -138 86 -179 86 -11 0 -20 1
-20 3 0 1 -9 34 -21 72 -11 39 -22 77 -24 85 -2 8 -31 114 -65 235 -33 121
-63 227 -65 235 -2 8 -36 130 -75 270 -39 140 -73 262 -75 270 -2 8 -18 68
-36 133 l-33 119 32 28 32 28 408 -245 c224 -135 412 -248 417 -253 6 -4 30
-19 55 -32 53 -30 511 -305 517 -311 2 -3 -1 -26 -7 -53 -23 -101 -11 -187 38
-264 l28 -45 -454 -755 -454 -755 -52 -1 c-103 -3 -174 -32 -243 -101 -176
-173 -106 -479 127 -558 172 -58 362 30 428 197 40 105 18 255 -50 328 -18 19
-16 24 92 201 60 100 110 185 110 190 0 5 4 9 9 9 5 0 11 6 13 13 2 7 45 82
96 167 51 85 201 333 332 550 l238 395 73 6 c88 8 122 18 175 52 80 50 128
122 148 220 48 236 -156 438 -398 394 -28 -5 -57 -13 -63 -19 -9 -7 -85 33
-270 144 -367 220 -1227 738 -1230 742 -2 1 -6 23 -9 47 -7 49 -33 116 -63
157 l-19 27 72 130 c40 72 87 157 105 190 19 33 41 74 51 90 9 17 31 55 47 85
24 44 344 622 414 747 10 18 35 63 55 100 74 136 68 131 122 128 244 -11 418
248 317 473 -57 127 -175 201 -315 198 -260 -5 -417 -294 -278 -512 30 -48 30
-49 13 -79 -9 -16 -30 -52 -45 -80 -108 -194 -332 -600 -357 -645 -17 -30 -88
-158 -158 -285 -70 -126 -144 -259 -163 -295 -75 -138 -73 -136 -133 -135
-127 3 -254 -78 -309 -196 -13 -27 -31 -49 -39 -50 -9 -1 -27 -2 -41 -4 -14
-1 -70 -5 -125 -9 -55 -4 -120 -9 -145 -11 -48 -5 -135 -11 -270 -20 -47 -3
-110 -8 -140 -11 -166 -14 -210 -15 -210 -4 0 22 -62 98 -103 127 -57 40 -121
63 -187 66 l-55 2 -385 766 -384 766 45 52 c148 169 97 427 -104 525 -72 36
-179 43 -254 17z m169 -226 c24 -9 47 -48 50 -82 9 -116 -141 -169 -203 -71
-37 60 -12 135 55 163 28 12 51 9 98 -10z m3738 -12 c56 -51 50 -135 -12 -173
-83 -51 -178 9 -171 107 6 82 120 123 183 66z m-1124 -2037 c26 -26 34 -42 34
-71 0 -70 -43 -116 -109 -117 -85 -1 -136 78 -103 158 16 39 57 63 106 64 30
0 45 -7 72 -34z m-1602 -95 c77 -41 68 -159 -14 -196 -35 -16 -44 -16 -76 -4
-65 25 -94 87 -69 147 25 59 100 84 159 53z m1294 -229 c55 -50 105 -73 190
-88 8 -1 15 -4 16 -6 1 -2 40 -138 85 -303 45 -165 133 -482 194 -704 l113
-404 -47 -48 c-76 -78 -111 -208 -86 -315 8 -31 5 -33 -135 -145 -79 -62 -145
-116 -148 -119 -3 -3 -206 -166 -452 -362 l-447 -357 -48 22 c-66 30 -198 31
-263 1 l-45 -20 -81 65 c-100 81 -405 332 -420 346 -7 5 -31 26 -55 45 -24 19
-71 58 -104 85 -59 50 -152 127 -545 449 -107 88 -201 166 -207 173 -10 9 -10
22 -2 61 14 59 5 146 -20 195 l-18 35 50 59 c27 32 66 76 86 99 20 22 54 62
76 89 22 26 47 55 56 64 8 9 60 68 114 131 54 63 101 117 104 120 5 4 198 228
277 320 61 71 189 217 203 231 9 9 31 34 48 56 l33 40 57 -11 c155 -31 306 44
377 186 15 29 34 53 43 54 10 2 63 6 118 9 55 3 116 8 135 10 19 1 80 6 135
10 55 3 123 8 150 10 94 8 175 14 272 21 54 3 100 8 102 10 2 2 15 -15 28 -38
13 -24 41 -58 61 -76z m-3986 -9 c10 -9 23 -33 30 -54 20 -69 -30 -139 -100
-139 -87 0 -139 81 -101 158 11 22 30 44 42 51 29 14 106 5 129 -16z m6233
-843 c59 -22 86 -86 61 -143 -33 -79 -144 -97 -190 -31 -67 96 22 215 129 174z
m-5004 -614 c8 -4 23 -20 32 -35 32 -55 17 -119 -35 -151 -50 -30 -90 -26
-132 14 -29 27 -36 41 -36 72 0 75 65 132 130 113 14 -4 32 -10 41 -13z m3632
-245 c72 -71 5 -203 -94 -186 -89 16 -126 102 -76 176 38 57 118 62 170 10z
m174 -1226 c91 -60 38 -207 -72 -200 -76 4 -128 93 -93 158 32 61 107 80 165
42z m-1875 -124 c29 -26 33 -35 33 -81 0 -46 -4 -55 -33 -81 -47 -43 -102 -41
-148 5 -27 27 -34 42 -34 73 1 71 42 112 112 113 28 0 46 -8 70 -29z m-1523
-336 c21 -20 26 -35 26 -75 0 -62 -32 -99 -91 -106 -124 -15 -176 149 -65 205
43 23 93 13 130 -24z m-1653 -551 c62 -41 68 -132 12 -179 -16 -14 -37 -26
-46 -26 -65 -6 -104 14 -129 66 -46 96 74 197 163 139z"/>
<path d="M2922 3374 c-86 -36 -87 -156 -1 -202 26 -13 79 -8 110 11 48 30 60
117 22 159 -38 43 -81 53 -131 32z"/>
<path d="M3942 2589 c-71 -21 -96 -126 -43 -179 51 -52 111 -52 162 0 21 21
29 38 29 65 0 84 -68 137 -148 114z"/>
<path d="M1066 6309 c-14 -11 -31 -30 -38 -42 -16 -30 -20 -246 -4 -248 6 -1
49 -3 96 -4 47 -2 93 -3 103 -4 15 -1 17 -13 17 -110 0 -78 4 -110 13 -113 6
-2 60 -3 120 -2 90 3 112 6 136 23 61 44 61 138 -1 182 -28 21 -44 23 -147 23
l-116 1 -2 102 c0 56 -6 118 -13 137 -23 70 -109 98 -164 55z"/>
<path d="M3368 6309 c-65 -33 -81 -109 -37 -170 41 -58 135 -56 174 5 47 72 8
163 -76 178 -15 3 -42 -3 -61 -13z"/>
<path d="M783 6008 c-63 -16 -101 -101 -71 -157 26 -49 68 -63 190 -65 l111
-1 1 -116 c1 -128 11 -156 67 -185 63 -32 138 9 155 84 5 20 8 79 6 130 l-3
92 -109 0 c-61 0 -110 3 -111 8 -1 4 -2 54 -3 112 l-1 104 -101 1 c-56 0 -115
-3 -131 -7z"/>
<path d="M4282 5637 c-110 -33 -91 -198 24 -214 99 -13 163 104 97 177 -34 37
-77 50 -121 37z"/>
<path d="M6614 5496 c-39 -39 -44 -77 -18 -131 33 -70 146 -78 188 -12 52 81
-2 177 -100 177 -28 0 -44 -8 -70 -34z"/>
<path d="M323 2134 c-62 -27 -83 -89 -51 -153 25 -51 71 -69 130 -52 98 30
103 167 7 205 -46 19 -44 19 -86 0z"/>
<path d="M6205 1610 c-72 -29 -93 -124 -41 -179 35 -36 74 -46 121 -31 37 12
75 62 75 100 0 78 -85 139 -155 110z"/>
<path d="M4513 988 c-18 -5 -42 -22 -55 -41 -20 -28 -23 -44 -24 -143 -1 -62
-4 -116 -7 -120 -3 -5 -52 -8 -109 -8 -109 1 -139 -7 -178 -48 -23 -25 -26
-80 -7 -118 22 -45 70 -60 190 -60 59 0 107 -3 108 -7 0 -5 2 -55 2 -113 3
-120 19 -163 69 -185 38 -15 86 -10 112 13 37 34 46 68 46 182 l0 110 113 0
c95 0 117 3 145 20 56 34 72 103 36 157 -25 40 -53 47 -174 49 l-115 1 -5 119
c-5 115 -13 148 -43 173 -25 20 -70 28 -104 19z"/>
</g>
</svg>
