<?xml version="1.0" encoding="UTF-8"?>
<svg width="1200pt" height="1200pt" version="1.1" viewBox="0 0 1200 1200" xmlns="http://www.w3.org/2000/svg">
 <g>
  <path fill="#fff" d="m1146.8 290.5c5.1992 0.13281 10.234-1.8164 13.988-5.4141 3.7578-3.5977 5.918-8.543 6.0078-13.742 0.089844-5.2031-1.9023-10.223-5.5312-13.945-3.6289-3.7266-8.5938-5.8438-13.793-5.8906-5.1992-0.046874-10.203 1.9883-13.898 5.6484-3.6914 3.6602-5.7734 8.6445-5.7734 13.844 0 5.0859 1.9844 9.9727 5.5352 13.613 3.5469 3.6445 8.3789 5.7578 13.465 5.8867z"/>
  <path fill="#fff" d="m1137.2 554.5c-8.8594-0.082031-17.605 1.9766-25.5 6l-86.5-52-168.5-101.5v-0.5c0.15625-14.289-5.2188-28.086-15-38.5l33-59 107.5-194c3.3008 0.60547 6.6445 0.94141 10 1 15.383 0 30.137-6.1094 41.012-16.988 10.879-10.875 16.988-25.629 16.988-41.012s-6.1094-30.137-16.988-41.012c-10.875-10.879-25.629-16.988-41.012-16.988s-30.137 6.1094-41.012 16.988c-10.879 10.875-16.988 25.629-16.988 41.012-0.007812 14.02 5.1523 27.551 14.5 38l-102.5 185-38 68.5c-3.1328-0.60547-6.3086-0.94141-9.5-1-12.742 0.046875-25.125 4.2109-35.305 11.871-10.184 7.6562-17.617 18.402-21.195 30.629l-161.5 12c-4.3867-10.418-11.762-19.305-21.195-25.531-9.4336-6.2305-20.5-9.5234-31.805-9.4688-2.3438-0.10156-4.6953 0.066406-7 0.5l-130.5-260-2-4.5c14.535-10.812 23.07-27.883 23-46-0.015625-15.234-6.0234-29.852-16.727-40.695-10.703-10.84-25.242-17.035-40.477-17.246-15.234-0.20703-29.938 5.5859-40.934 16.129-11 10.543-17.406 24.988-17.84 40.219-0.43359 15.227 5.1445 30.016 15.523 41.168 10.379 11.148 24.73 17.77 39.953 18.426l1.5 3 134 267c-10.648 10.578-16.594 24.992-16.5 40-0.14062 10.004 2.4531 19.859 7.5 28.5l-180 207.5c-6.8672-2.6211-14.152-3.9766-21.5-4-6.293-0.066406-12.551 0.94922-18.5 3l-133-150.5-12.5-14c6.2656-9.4922 9.5703-20.629 9.5-32 0.066406-15.477-6.0312-30.344-16.941-41.32-10.914-10.977-25.746-17.156-41.227-17.18-15.477-0.023438-30.324 6.1172-41.27 17.062s-17.086 25.793-17.062 41.27c0.023438 15.48 6.2031 30.312 17.18 41.227 10.977 10.91 25.844 17.008 41.32 16.941 5.8047 0.066406 11.57-0.95312 17-3l50 56.5 96.5 109.5c-5.9648 9.0469-9.0977 19.664-9 30.5 0.042969 15.129 5.957 29.648 16.5 40.5l-164 328c-2.3047-0.43359-4.6562-0.60156-7-0.5-15.383 0-30.137 6.1094-41.012 16.988-10.879 10.875-16.988 25.629-16.988 41.012s6.1094 30.137 16.988 41.012c10.875 10.879 25.629 16.988 41.012 16.988s30.137-6.1094 41.012-16.988c10.879-10.875 16.988-25.629 16.988-41.012 0.09375-15.008-5.8516-29.422-16.5-40l117.5-234 45.5-92 42.5 219c-1.9336 1.375-3.7695 2.8789-5.5 4.5-13.184 11.082-20.77 27.441-20.715 44.664 0.054688 17.223 7.75 33.531 21.004 44.527 13.258 10.996 30.707 15.543 47.645 12.418 16.934-3.125 31.609-13.605 40.066-28.609 5.0469-8.6406 7.6406-18.496 7.5-28.5 0.14453-14.418-5.1133-28.363-14.734-39.098-9.625-10.734-22.918-17.48-37.266-18.902l-43-220.5 245 202c-2.457 6.2031-3.6445 12.832-3.5 19.5 0.011719 15.422 6.1641 30.203 17.09 41.086 10.93 10.883 25.738 16.969 41.16 16.914 7.8906 0.054688 15.711-1.4766 23-4.5 10.52-4.4414 19.496-11.887 25.812-21.402 6.3125-9.5117 9.6836-20.68 9.6875-32.098 0.097656-6.5039-1.0898-12.961-3.5-19l205-164c9.0469 5.9648 19.664 9.0977 30.5 9 15.379-0.011719 30.125-6.1289 40.996-17.004 10.875-10.871 16.992-25.617 17.004-40.996 0.046875-14.586-5.4531-28.641-15.391-39.32-9.9336-10.676-23.559-17.176-38.109-18.18l-67.5-243.5c3.9688-2.8047 7.5039-6.1758 10.5-10l211 127 30.5 18c-3.2344 7.418-4.9336 15.41-5 23.5-0.21094 13.816 4.7891 27.203 14 37.5l-16.5 27.5-113 187.5-27 45.5c-2.9688-0.58203-5.9766-0.91406-9-1-15.449-0.066406-30.289 6.0078-41.262 16.883-10.969 10.879-17.172 25.668-17.238 41.117s6.0078 30.289 16.887 41.262c10.875 10.969 25.664 17.172 41.113 17.238s30.293-6.0078 41.262-16.887c10.973-10.875 17.172-25.664 17.238-41.113 0.12109-14.523-5.4414-28.52-15.5-39l156.5-259.5c3.4727 0.58203 6.9805 0.91406 10.5 1 20.723 0 39.867-11.055 50.23-29 10.359-17.945 10.359-40.055 0-58-10.363-17.945-29.508-29-50.23-29zm-145-515.5c6.8789 0 13.23 3.668 16.672 9.625 3.4375 5.957 3.4375 13.293 0 19.25-3.4414 5.957-9.793 9.625-16.672 9.625s-13.23-3.668-16.672-9.625c-3.4375-5.957-3.4375-13.293 0-19.25 3.4414-5.957 9.793-9.625 16.672-9.625zm-658 19c0-6.8789 3.668-13.23 9.625-16.672 5.957-3.4375 13.293-3.4375 19.25 0 5.957 3.4414 9.625 9.793 9.625 16.672s-3.668 13.23-9.625 16.672c-5.957 3.4375-13.293 3.4375-19.25 0-5.957-3.4414-9.625-9.793-9.625-16.672zm-290.5 406.5c0.066406-5.0742 2.1367-9.9219 5.7539-13.477 3.6211-3.5586 8.5039-5.543 13.578-5.5234 5.0781 0.023438 9.9375 2.0508 13.527 5.6406s5.6172 8.4492 5.6406 13.527c0.019531 5.0742-1.9648 9.957-5.5234 13.578-3.5547 3.6172-8.4023 5.6875-13.477 5.7539-5.1719 0-10.133-2.0547-13.789-5.7109s-5.7109-8.6172-5.7109-13.789zm19.5 697c-5.1992 0.13281-10.234-1.8164-13.988-5.4141-3.7578-3.5977-5.918-8.543-6.0078-13.742-0.089844-5.2031 1.9023-10.223 5.5312-13.945 3.6289-3.7266 8.5938-5.8438 13.793-5.8906 5.1992-0.046874 10.203 1.9883 13.898 5.6484 3.6914 3.6602 5.7734 8.6445 5.7734 13.844 0 5.0859-1.9844 9.9727-5.5352 13.613-3.5469 3.6445-8.3789 5.7578-13.465 5.8867zm298.5-117.5c0.03125 5.1367-2.0312 10.062-5.7109 13.645-3.6758 3.5859-8.6562 5.5195-13.789 5.3555-5.0391 0-9.8711-2-13.434-5.5664-3.5664-3.5625-5.5664-8.3945-5.5664-13.434-0.085938-3.2305 0.70703-6.4258 2.293-9.2422 1.5859-2.8164 3.9023-5.1523 6.707-6.7578 2.8086-2.3203 6.3555-3.5625 10-3.5 5.1953-0.082031 10.203 1.9453 13.879 5.6211 3.6758 3.6758 5.7031 8.6836 5.6211 13.879zm437-657c5.1719 0 10.133 2.0547 13.789 5.7109s5.7109 8.6172 5.7109 13.789-2.0547 10.133-5.7109 13.789-8.6172 5.7109-13.789 5.7109-10.133-2.0547-13.789-5.7109-5.7109-8.6172-5.7109-13.789c-0.027344-5.1797 2.0195-10.156 5.6836-13.816 3.6602-3.6641 8.6367-5.7109 13.816-5.6836zm-252 39c0 6.8789-3.668 13.23-9.625 16.672-5.957 3.4375-13.293 3.4375-19.25 0-5.957-3.4414-9.625-9.793-9.625-16.672s3.668-13.23 9.625-16.672c5.957-3.4375 13.293-3.4375 19.25 0 5.957 3.4414 9.625 9.793 9.625 16.672zm-271 271c5.1328-0.066406 10.082 1.9219 13.742 5.5195 3.6602 3.5977 5.7344 8.5117 5.7578 13.645 0.019531 5.1367-2.0078 10.066-5.6406 13.695-3.6289 3.6328-8.5586 5.6602-13.695 5.6406-5.1328-0.023438-10.047-2.0977-13.645-5.7578-3.5977-3.6602-5.5859-8.6094-5.5195-13.742 0.027344-5.0312 2.0352-9.8477 5.5938-13.406s8.375-5.5664 13.406-5.5938zm329 309.5c-5.0742-0.066406-9.9219-2.1367-13.477-5.7539-3.5586-3.6211-5.543-8.5039-5.5234-13.578 0.023438-5.0781 2.0508-9.9375 5.6406-13.527s8.4492-5.6172 13.527-5.6406c5.0742-0.019531 9.957 1.9648 13.578 5.5234 3.6172 3.5547 5.6875 8.4023 5.7539 13.477 0.10938 5.1602-1.875 10.145-5.5039 13.82-3.625 3.6719-8.5859 5.7227-13.746 5.6797zm310-251.5c0 5.1719-2.0547 10.133-5.7109 13.789s-8.6172 5.7109-13.789 5.7109-10.133-2.0547-13.789-5.7109-5.7109-8.6172-5.7109-13.789 2.0547-10.133 5.7109-13.789 8.6172-5.7109 13.789-5.7109c5.2227-0.09375 10.262 1.9219 13.98 5.5938 3.7188 3.668 5.7969 8.6836 5.7695 13.906zm-53-47.5c-15.438 10.879-24.582 28.613-24.5 47.5-0.097656 6.5039 1.0898 12.961 3.5 19l-205 164c-9.1992-6.0312-20-9.168-31-9-10.453-0.10156-20.703 2.8555-29.5 8.5l-244.5-201.5c2.2148-6.4414 3.3984-13.191 3.5-20-0.039062-10.047-2.8047-19.898-8-28.5l180-207.5c6.8672 2.6211 14.152 3.9766 21.5 4 12.68-0.058594 24.996-4.2344 35.098-11.898 10.098-7.668 17.434-18.406 20.902-30.602l161.5-12c4.2031 9.7031 11 18.059 19.645 24.145 8.6445 6.0859 18.805 9.6719 29.355 10.355zm66 279.5c-5.1055-0.066406-9.9727-2.1602-13.535-5.8164s-5.5273-8.5781-5.4609-13.684 2.1562-9.9727 5.8125-13.535 8.5781-5.5273 13.684-5.4609 9.9766 2.1562 13.539 5.8125 5.5273 8.5781 5.4609 13.684c-0.10547 5.0938-2.207 9.9414-5.8555 13.496-3.6484 3.5547-8.5508 5.5312-13.645 5.5039zm209.5-355c-5.1719 0-10.133-2.0547-13.789-5.7109s-5.7109-8.6172-5.7109-13.789 2.0547-10.133 5.7109-13.789 8.6172-5.7109 13.789-5.7109 10.133 2.0547 13.789 5.7109 5.7109 8.6172 5.7109 13.789c0.027344 5.1797-2.0195 10.156-5.6836 13.816-3.6602 3.6641-8.6367 5.7109-13.816 5.6836z"/>
  <path fill="#fff" d="m1070.8 922.5c-5.1719 0-10.133 2.0547-13.789 5.7109s-5.7109 8.6172-5.7109 13.789 2.0547 10.133 5.7109 13.789 8.6172 5.7109 13.789 5.7109 10.133-2.0547 13.789-5.7109 5.7109-8.6172 5.7109-13.789c-0.125-5.1328-2.2227-10.02-5.8516-13.648-3.6289-3.6289-8.5156-5.7266-13.648-5.8516z"/>
  <path fill="#fff" d="m837.25 1085v-1h-38.5v-39h-1c-0.85547-4.3047-3.1562-8.1914-6.5195-11.008-3.3633-2.8203-7.5898-4.4062-11.98-4.4922-4.4102 0.011719-8.6758 1.5703-12.055 4.4023-3.3828 2.832-5.6602 6.7578-6.4453 11.098h-0.75v39h-38.5v1c-4.418 0.61719-8.4453 2.8477-11.309 6.2656-2.8633 3.418-4.3594 7.7773-4.1914 12.234-0.007812 4.4141 1.543 8.6914 4.3789 12.074 2.8359 3.3867 6.7734 5.6602 11.121 6.4258 0.5 0.5 1 1 1.5 0.5 0.75 0.45312 1.6328 0.62891 2.5 0.5h34.5v38.5h1c0.78516 4.3398 3.0625 8.2656 6.4453 11.098 3.3789 2.832 7.6445 4.3906 12.055 4.4023 4.3906-0.085938 8.6172-1.6719 11.98-4.4922 3.3633-2.8164 5.6641-6.7031 6.5195-11.008h1v-38.5h34.5c0.86719 0.12891 1.75-0.046875 2.5-0.5 0.5 0.5 1 0 1.5-0.5 4.3477-0.76562 8.2852-3.0391 11.121-6.4258 2.8359-3.3828 4.3867-7.6602 4.3789-12.074 0.16016-4.4922-1.3672-8.8828-4.2812-12.309-2.918-3.4219-7.0078-5.6328-11.469-6.1914z"/>
  <path fill="#fff" d="m740.25 271c6.8789 0 13.23-3.668 16.672-9.625 3.4375-5.957 3.4375-13.293 0-19.25-3.4414-5.957-9.793-9.625-16.672-9.625s-13.23 3.668-16.672 9.625c-3.4375 5.957-3.4375 13.293 0 19.25 3.4414 5.957 9.793 9.625 16.672 9.625z"/>
  <path fill="#fff" d="m682.25 755c-6.8789 0-13.23 3.668-16.672 9.625-3.4375 5.957-3.4375 13.293 0 19.25 3.4414 5.957 9.793 9.625 16.672 9.625s13.23-3.668 16.672-9.625c3.4375-5.957 3.4375-13.293 0-19.25-3.4414-5.957-9.793-9.625-16.672-9.625z"/>
  <path fill="#fff" d="m585.75 155c5.0938-0.10547 9.9414-2.207 13.496-5.8555 3.5547-3.6484 5.5312-8.5508 5.5039-13.645 0.015625-5.0898-1.9688-9.9844-5.5195-13.629-3.5508-3.6445-8.3906-5.7539-13.48-5.8711-1.875 0.042969-3.7305 0.38281-5.5 1-6.0078 1.7812-10.789 6.3555-12.828 12.281-2.043 5.9258-1.0938 12.473 2.543 17.578 3.6367 5.1055 9.5156 8.1367 15.785 8.1406z"/>
  <path fill="#fff" d="m508.25 619.5c-5.0742 0.066406-9.9219 2.1367-13.477 5.7539-3.5586 3.6211-5.543 8.5039-5.5234 13.578 0.023438 5.0781 2.0508 9.9375 5.6406 13.527s8.4492 5.6172 13.527 5.6406c5.0742 0.019531 9.957-1.9648 13.578-5.5234 3.6172-3.5547 5.6875-8.4023 5.7539-13.477 0-5.1719-2.0547-10.133-5.7109-13.789s-8.6172-5.7109-13.789-5.7109z"/>
  <path fill="#fff" d="m135.25 207c0.39844 0.38281 0.94922 0.56641 1.5 0.5 0.76953 0.40234 1.6367 0.57812 2.5 0.5h34.5v34.5c-0.078125 0.86328 0.097656 1.7305 0.5 2.5-0.066406 0.55078 0.11719 1.1016 0.5 1.5 0.58203 4.5234 3.1484 8.5547 7 11 3.1641 2.8398 7.25 4.4375 11.5 4.5 4.4102-0.011719 8.6758-1.5703 12.055-4.4023 3.3828-2.832 5.6602-6.7578 6.4453-11.098h1v-38.5h35c0.86328 0.078125 1.7305-0.097656 2.5-0.5 0.13281 0.13281 0.3125 0.21094 0.5 0.21094s0.36719-0.078126 0.5-0.21094c4.4219-0.80859 8.4102-3.1641 11.25-6.6445 2.8398-3.4844 4.3477-7.8633 4.25-12.355 0.0625-3.3516-0.79297-6.6602-2.4648-9.5664s-4.1055-5.3008-7.0352-6.9336c-1.6328-1.5312-3.7617-2.4219-6-2.5v-0.5h-38.5v38.5h-38.5v-38.5h38.5v-39h-1c-0.78516-4.3398-3.0625-8.2656-6.4453-11.098-3.3789-2.832-7.6445-4.3906-12.055-4.4023-4.3906 0.085938-8.6172 1.6719-11.98 4.4922-3.3633 2.8164-5.6641 6.7031-6.5195 11.008h-0.5v1.5c-0.40234 0.76953-0.57812 1.6367-0.5 2.5v35h-38.5v1c-4.3398 0.78516-8.2656 3.0625-11.098 6.4453-2.832 3.3789-4.3906 7.6445-4.4023 12.055 0.085938 4.3906 1.6719 8.6172 4.4922 11.98 2.8164 3.3633 6.7031 5.6641 11.008 6.5195z"/>
  <path fill="#fff" d="m82.25 851.5c0-6.8789-3.668-13.23-9.625-16.672-5.957-3.4375-13.293-3.4375-19.25 0-5.957 3.4414-9.625 9.793-9.625 16.672s3.668 13.23 9.625 16.672c5.957 3.4375 13.293 3.4375 19.25 0 5.957-3.4414 9.625-9.793 9.625-16.672z"/>
 </g>
</svg>
